<?xml version="1.0" encoding="UTF-8"?>
<svg id="Ebene_1" data-name="Ebene 1" xmlns="http://www.w3.org/2000/svg" viewBox="0 0 155.86 166.02">
  <defs>
    <style>
      .cls-1 {
        fill: #181b1c;
      }
    </style>
  </defs>
  <path class="cls-1" d="M41.95,81.51v-.02c.01-.28-.05-.54-.18-.79-.08-.25-.22-.47-.42-.66-.19-.2-.4-.34-.66-.42-.24-.13-.51-.19-.79-.18l-.54.07c-.35.1-.65.27-.9.53l-.32.41c-.18.32-.28.66-.28,1.03v.02c-.01.28.05.54.18.79.08.25.22.47.42.66.19.2.4.34.66.42.24.13.51.19.79.18l.54-.07c.35-.1.65-.27.9-.53l.32-.41c.18-.32.28-.66.28-1.03h0Z"/>
  <path class="cls-1" d="M133.45,93.19c-2.12,1.47-4.71,1.34-6.88,0l.79.79c-3.91-5.38-7.84-10.75-11.77-16.11-.53-.72-1.25-1.19-2.19-1.05-.78.12-1.69.72-1.83,1.58-.72,4.57-1.47,9.19-2.71,13.66-.22.81-.47,1.61-.76,2.39-.08.2-.08.25-.29.66-.06.1-.12.21-.17.31-.21.4-.22.11,0,.04-.36.13.28-.15.36-.18.34-.14.7-.15,1.06-.06.52.14.68.36.94.68-.05-.06-.07-.16-.12-.22-.14-.18.15.55.07.14-.05-.23-.14-.47-.19-.7-.07-.29-.12-.58-.17-.87-.02-.13-.04-.26-.06-.39.06.4,0,.03,0-.04-.09-.81-.16-1.62-.21-2.43-.12-1.88-.16-3.77-.18-5.66-.04-4.14.05-8.29.19-12.43.03-1.03.16-2.09.11-3.12-.07-1.5-1.74-3.07-2.6-4.24-2.04-2.77-4.09-5.54-6.15-8.3-1.03-1.39-3.57-1.5-4.02.53-.26,1.18-.53,2.39-.98,3.52-.15.37-.48.76-.58,1.14.03-.1-.13.2-.16.16-.06-.09.69-.22.77-.21.22.03.35.11.53.22-.01,0,.2.06.15.14.04-.06-.19-.4-.19-.4-.22-.68-.35-1.39-.42-2.1-.21-1.93-.19-3.89-.14-5.82.03-.99.18-2.01.14-3-.05-1.37-1.44-2.64-2.23-3.68-1.08-1.42-3.5-1.47-4.02.53-.25.95-.49,1.97-.99,2.83-.12.21-.28.44-.28.44l.25-.06c.31-.13.61-.08.92.13.1.04.24.33.31.34-.24-.04-.38-1.05-.45-1.5-.13-.85-.15-1.72-.16-2.58-.02-.93,0-1.87.04-2.8.05-1.1.31-2.22-.37-3.18-.6-.85-1.46-1.59-2.17-2.36-.81-.87-1.62-1.75-2.51-2.55-1.63-1.48-3.5-2.78-5.75-3.01-1.95-.2-3.82.54-5.38,1.67-1.75,1.27-3.21,2.86-4.67,4.44-.88.96-1.82,1.87-2.66,2.88-2.16,2.61-4.18,5.35-6.22,8.06-1.47,1.95-2.92,3.9-4.38,5.85-.76,1.03-1.04,1.76-1.04,3.02,0,.81-.01,1.63-.02,2.44-.05,3.45-.16,6.9-.42,10.34-.21,2.71-.41,5.26-1.25,7.86-.13.39,0,0,.04-.06-.06.12-.15.27-.19.39-.15.45.11-.06,0,.05-.25.23.21-.15.22-.16-.15.06.59-.18.7-.18.52,0,.52.16.79.3-.26-.13.03-.04.07.1-.03-.13-.19-.32-.24-.45.2.41-.12-.41-.15-.53-.18-.64-.31-1.4-.39-1.98-.5-3.84-.35-7.81-.19-11.67.04-.96-.71-1.87-1.62-2.12-1.01-.28-1.9.22-2.49,1.01-1.12,1.51-2.23,3.02-3.34,4.54-.53.72-1.36,1.54-1.6,2.41-.15.54-.07,1.16-.07,1.71.02,2.24.02,4.48,0,6.72-.03,5.01-.13,10.03-.48,15.03-.15,2.1-.32,4.09-.62,5.86-.12.7-.26,1.41-.47,2.1-.06.2-.44,1.01-.1.36-.17.32-.58.68-.07.23-.2.18-.21.08.22-.16.34-.18.41-.21.81-.21.56,0,.22,0,.72.19.3.11.43.3.15.1.58.43.06.28.07.07,0-.07-.16-.3-.19-.36.29.55-.12-.37-.18-.56-.59-1.94-.79-3.8-.98-5.73-.54-5.43-.64-10.91-.67-16.36,0-2.34-2.87-2.79-4.1-1.11-3.3,4.52-6.59,9.05-9.9,13.57l.79-.79c-1.81,1.13-4.66,1.66-6.72.12-1.12-.84-1.75-2.19-1.95-3.46-.07-.44-.08-1.13-.06-1.67.01-.24.03-.47.05-.71.03-.34-.06.38-.01.08.02-.11.05-.23.06-.33.04-.84.14.17-.13.1.01,0,.1-.14.11-.15.23-.24.41-.58.61-.86.86-1.22,1.72-2.44,2.58-3.67,7.23-10.29,14.42-20.61,21.51-31,3.93-5.76,7.83-11.53,11.65-17.36s7.62-11.98,12.14-17.22c.68-.79,1.39-1.56,2.15-2.27.31-.3.64-.58.97-.86.17-.14.47-.36.12-.1.18-.14.37-.27.56-.4.3-.2.6-.39.92-.56.23-.12,1.18-.52.56-.29.63-.23,1.25-.4,1.91-.54.3-.06.38-.04-.01,0,.17-.02.35-.04.52-.05.36-.03.72-.04,1.08-.04s.72.03,1.08.04c.62.03-.2-.06.16.01.2.04.39.07.59.11.39.09.77.2,1.15.33.08.03.61.24.31.11-.28-.12.34.17.45.22.34.18.68.38,1,.59.2.13.39.26.58.4.1.07.2.14.29.22-.17-.13-.16-.13,0,0,4.86,4.02,8.43,9.69,12,14.81,5.4,7.74,10.18,15.22,15.52,23.04,1.42,2.08,2.85,4.16,4.28,6.23l-.3-1.11c0,1.05.86,1.93,1.42,2.75.74,1.07,1.48,2.14,2.22,3.22,1.34,1.93,2.68,3.86,4.02,5.79,2.29,3.29,4.58,6.57,6.88,9.85,1.57,2.25,3.15,4.49,4.73,6.73.38.54.75,1.1,1.15,1.63.05.07.16.32.25.35-.07-.03-.17-.76-.14-.26,0,.17.07.36.1.53.04.24-.02-.17-.02-.18.02.16.04.32.04.48.04.67.06,1.35-.04,2.01-.2,1.39-.99,2.69-2.23,3.65-.94.73-.77,2.35,0,3.11.93.93,2.17.73,3.11,0,2.63-2.04,3.77-5.42,3.56-8.68-.09-1.37-.26-2.44-1.03-3.54-3.49-4.94-6.95-9.89-10.41-14.85-3.18-4.57-6.35-9.14-9.51-13.72l.3,1.11c0-1.2-1.17-2.38-1.82-3.32-.88-1.27-1.75-2.55-2.62-3.82-1.59-2.32-3.17-4.65-4.74-6.98-2.9-4.29-5.64-8.49-8.53-12.79-2.69-4-5.47-7.96-8.41-11.79-1.9-2.46-3.85-4.96-6.21-7-3.34-2.89-7.23-4.18-11.62-3.51-4.07.62-7.18,3.53-9.74,6.56-5.31,6.27-9.63,13.38-14.15,20.21-4.42,6.68-8.92,13.3-13.46,19.9-6.9,10.03-13.86,20.02-20.88,29.96-.68.96-.88,1.78-1.01,2.99-.4,3.7.89,7.39,3.96,9.61s7.86,2.12,11.18.09c1.15-.71,1.96-2.29,2.73-3.35,1.14-1.57,2.29-3.13,3.43-4.7,1.56-2.13,3.11-4.27,4.67-6.4l-4.1-1.11c.02,4.91.13,9.83.52,14.72.19,2.35.43,4.72.91,7.04.32,1.54.77,3.31,1.95,4.44,1.44,1.38,3.57.97,4.63-.63.76-1.15,1.06-2.62,1.29-3.96.82-4.63.99-9.4,1.13-14.09.17-5.3.13-10.6.13-15.9l-.3,1.11c1.56-2.15,3.14-4.28,4.72-6.42l-4.1-1.11c-.15,3.63-.24,7.3.11,10.93.24,2.51.56,6.71,3.52,7.58,2.78.81,4.15-2.1,4.7-4.27.81-3.19,1.01-6.57,1.21-9.85.23-3.91.31-7.84.31-11.76l-.3,1.11c2.5-3.37,5.01-6.73,7.56-10.07,1.27-1.67,2.51-3.41,3.96-4.93,1.35-1.41,2.62-2.88,4.01-4.25.99-.98,2.27-2.29,3.72-2.5s2.8.99,3.78,1.89c1.54,1.42,2.91,3.03,4.35,4.55l-.64-1.56c0,1.97-.21,3.92-.1,5.9.1,1.69.25,3.59,1.17,5.06,1.01,1.6,3.01,2.09,4.64,1.11,1.93-1.17,2.66-3.81,3.19-5.84l-4.02.53c.65.85,1.29,1.71,1.93,2.57l-.3-1.11c-.14,2.39-.23,4.8-.12,7.19.1,2.01.23,4.28,1.2,6.1s3.13,2.65,4.97,1.48c2.26-1.45,2.94-4.83,3.47-7.25l-4.02.53c2.83,3.8,5.64,7.62,8.45,11.43l-.3-1.11c-.29,7.38-.65,14.87-.04,22.24.17,2.05.19,5.55,2.25,6.77,3.23,1.91,4.95-2.89,5.61-5.09,1.43-4.72,2.2-9.66,2.96-14.52l-4.02.53c3.65,4.98,7.3,9.97,10.93,14.96.26.36.53.73.79,1.09.69.92,1.65,1.33,2.71,1.74,3.12,1.22,6.66,1.04,9.45-.89,2.31-1.6.11-5.42-2.22-3.8Z"/>
  <path class="cls-1" d="M41.47,81.51v-.02c0-.22-.04-.42-.13-.6-.06-.19-.17-.36-.32-.5-.14-.15-.31-.26-.5-.32-.19-.1-.39-.14-.6-.13l-.42.06c-.26.07-.5.21-.69.4l-.24.32c-.14.24-.21.51-.21.79v.02c0,.22.04.42.13.6.06.19.17.36.32.5.14.15.31.26.5.32.19.1.39.14.6.13l.42-.06c.26-.07.5-.21.69-.4l.24-.32c.14-.24.21-.51.21-.79h0Z"/>
  <g>
    <path class="cls-1" d="M77.73,93.29c-4.5-.06-8.69-2.83-10.22-7.12s-.21-9.27,3.37-12.19,8.56-3.18,12.43-.88,6.02,7.02,5.08,11.47c-1.07,5.07-5.48,8.66-10.65,8.73-2.87.04-2.88,4.5,0,4.47,6.45-.08,12.11-4.06,14.4-10.09s.32-12.97-4.52-16.95-12.12-4.81-17.71-1.47-8.38,9.84-7.21,16.18c1.32,7.16,7.89,12.25,15.05,12.34,2.88.04,2.88-4.43,0-4.47Z"/>
    <path class="cls-1" d="M128.86,128.55c-.04-10.96-.17-21.91-.03-32.88,0-.72-.42-1.61-1.11-1.93-.39-.18-.77-.36-1.13-.58l.8.8c-3.91-5.38-7.84-10.75-11.77-16.11-.54-.73-1.27-1.21-2.23-1.07-.79.12-1.72.73-1.86,1.6-.72,4.57-1.47,9.19-2.71,13.66-.22.81-.47,1.61-.76,2.39-.08.2-.07.23-.29.65-.06.1-.12.21-.17.31-.21.4-.22.11,0,.03-.36.13.29-.16.37-.19.34-.14.72-.16,1.08-.06.53.14.7.36.96.69-.05-.06-.07-.15-.12-.22-.14-.18.15.56.07.15-.05-.23-.14-.47-.19-.7-.3-1.28-.34-2.11-.44-3.72-.12-1.88-.16-3.77-.18-5.66-.04-4.14.05-8.29.19-12.43.03-1.03.16-2.09.11-3.12-.07-1.51-1.74-3.08-2.61-4.25-2.04-2.77-4.09-5.54-6.15-8.3-1.05-1.41-3.63-1.52-4.08.53-.26,1.18-.53,2.39-.98,3.52-.15.37-.48.76-.58,1.13.03-.12-.12.19-.15.15-.06-.09.71-.23.8-.22.22.03.36.12.55.22-.02-.01.19.13.15.15,0,0-.17-.3-.18-.33.06.24.04.09,0-.06-.22-.68-.35-1.39-.42-2.09-.21-1.93-.19-3.89-.14-5.82.03-.99.18-2.01.14-3-.05-1.38-1.44-2.65-2.23-3.7-1.09-1.44-3.55-1.49-4.08.53-.25.95-.49,1.97-.98,2.83-.13.22-.28.42-.26.43l.26-.07c.32-.13.63-.09.94.13.12.05.24.33.33.36-.25-.06-.37-1.01-.45-1.5-.13-.84-.15-1.72-.16-2.57-.02-.93,0-1.87.04-2.8.05-1.11.31-2.23-.38-3.2-.61-.85-1.46-1.6-2.17-2.37-.81-.87-1.62-1.75-2.51-2.55-1.64-1.48-3.52-2.79-5.77-3.02-1.95-.2-3.83.54-5.4,1.68-1.76,1.27-3.22,2.86-4.68,4.45-.88.96-1.82,1.87-2.66,2.88-2.16,2.61-4.18,5.35-6.22,8.06-1.47,1.95-2.92,3.9-4.38,5.85-.77,1.03-1.04,1.77-1.05,3.04,0,.81-.01,1.63-.02,2.44-.05,3.45-.16,6.9-.42,10.34-.21,2.72-.41,5.23-1.25,7.85-.13.39,0,0,.04-.07-.06.12-.15.27-.19.39-.15.45.12-.07,0,.04-.25.23.22-.16.22-.16-.15.06.6-.18.72-.18.53,0,.53.16.82.31-.26-.14.04-.03.08.11-.03-.13-.19-.33-.24-.45.21.43-.11-.4-.15-.53-.18-.63-.32-1.42-.39-1.98-.5-3.85-.35-7.81-.19-11.67.04-.97-.72-1.9-1.64-2.15-1.02-.28-1.93.22-2.52,1.03-1.12,1.51-2.23,3.02-3.34,4.54-.53.72-1.36,1.54-1.6,2.42-.15.54-.07,1.16-.07,1.72.02,2.24.02,4.48,0,6.72-.03,5.01-.13,10.03-.48,15.03-.15,2.1-.32,4.1-.62,5.85-.12.7-.26,1.41-.47,2.1-.06.21-.44,1.02-.09.36-.17.33-.59.69-.06.22-.19.17-.25.12.23-.16.32-.18.45-.21.83-.22.56,0,.24,0,.73.19.31.12.44.31.16.1.71.53,0,.23.08.08.01-.02-.17-.33-.19-.36.3.57-.12-.35-.18-.55-.59-1.95-.79-3.79-.98-5.72-.54-5.43-.64-10.91-.67-16.36-.01-2.37-2.92-2.83-4.16-1.13-2.24,3.07-4.48,6.14-6.72,9.2-.69.95-1.61,1.86-1.69,3.08-.03.42-.02.84-.03,1.25-.1,5.1-.18,10.2-.21,15.3-.02,3.5-.03,6.99.02,10.49.03,1.76,1.86,2.7,3.36,1.93,3.51-1.8,7.1.59,7.64,4.26.17,1.17,1.71,1.89,2.75,1.56,5.73-1.8,11.84,1.26,13.59,7.07.73,2.43,4.3,1.94,4.39-.59.19-5.47.81-11,2.69-16.17,1.38-3.79,3.71-7.52,7.49-9.28,1.79-.83,3.78-1.11,5.74-1.06.37,0,.74.04,1.11.06.14.01.29.03.43.05-.4-.05-.04,0,.04,0,.67.11,1.34.26,1.99.46.31.1.62.21.93.33.08.03.39.17,0,0,.12.05.24.1.35.16.57.29,1.12.59,1.64.94.12.08.83.62.46.32.22.18.43.36.64.55.47.42.91.88,1.32,1.35.08.1.59.73.32.37.2.26.39.52.57.79.37.54.71,1.11,1.03,1.68.29.53.57,1.08.82,1.63s.34.76.64,1.58c.95,2.6,1.57,5.31,2,8.04.06.37.11.74.16,1.1-.05-.38.05.38.06.51.09.74.16,1.48.23,2.22.12,1.42.21,2.84.25,4.26.09,2.56.06,5.13-.05,7.7-.09,2.1-.24,4.2-.46,6.3-.06.62-.14,1.24-.21,1.86-.11.86.07-.44-.02.13-.21,1.41.56,2.83,2.15,2.83h24.74c.58,0,1.17.02,1.75,0,2.82-.15,5.38-1.48,7.08-3.74,2.03-2.71,1.84-5.87,1.85-9.08.02-3.77.03-7.53.02-11.3-.01-2.87-4.48-2.88-4.47,0,.01,3.19,0,6.39,0,9.58,0,1.39-.01,2.78-.02,4.17,0,1.15.01,2.22-.51,3.27-1.21,2.4-3.53,2.63-5.87,2.63h-24.56l2.15,2.83c1.24-8.49,1.37-17.32.13-25.8-.84-5.8-2.54-11.76-6.32-16.36-4.29-5.22-11.58-7.16-18.02-5.18-12.22,3.77-14.38,19.4-14.76,30.25l4.39-.59c-2.43-8.06-11.01-12.73-19.09-10.19l2.75,1.56c-.42-2.84-2.24-5.46-4.73-6.9-2.95-1.69-6.5-1.55-9.47-.03l3.36,1.93c-.13-9.03.02-18.08.22-27.11l-.3,1.13c2.7-3.7,5.4-7.4,8.1-11.1l-4.16-1.13c.02,4.91.13,9.83.52,14.72.19,2.35.43,4.73.91,7.04.32,1.55.77,3.32,1.95,4.45,1.46,1.4,3.61.98,4.68-.64.76-1.15,1.06-2.62,1.3-3.96.82-4.64.99-9.4,1.14-14.1.17-5.3.13-10.6.13-15.9l-.3,1.13c1.56-2.15,3.14-4.28,4.72-6.42l-4.16-1.13c-.15,3.63-.24,7.3.11,10.93.24,2.53.57,6.74,3.55,7.61,2.8.82,4.19-2.1,4.74-4.29.81-3.19,1.02-6.58,1.21-9.86.23-3.91.31-7.84.31-11.76l-.3,1.13c2.5-3.37,5.01-6.73,7.56-10.07,1.27-1.66,2.51-3.41,3.96-4.92,1.35-1.41,2.62-2.88,4.01-4.25.99-.97,2.26-2.28,3.7-2.49s2.78.98,3.75,1.88c1.54,1.42,2.91,3.03,4.35,4.55l-.65-1.58c0,1.97-.21,3.92-.1,5.9.1,1.7.25,3.6,1.18,5.08,1.02,1.61,3.04,2.11,4.68,1.12,1.94-1.17,2.67-3.82,3.2-5.86l-4.08.53c.65.85,1.29,1.71,1.93,2.57l-.3-1.13c-.14,2.39-.23,4.8-.12,7.19.1,2.02.23,4.29,1.2,6.12s3.16,2.67,5.02,1.49c2.27-1.45,2.95-4.84,3.49-7.27l-4.08.53c2.83,3.8,5.64,7.62,8.45,11.43l-.3-1.13c-.29,7.38-.65,14.87-.04,22.24.17,2.07.2,5.57,2.27,6.8,3.26,1.92,4.99-2.89,5.66-5.11,1.43-4.72,2.2-9.66,2.96-14.52l-4.08.53c3,4.09,6,8.19,8.99,12.29.77,1.05,1.54,2.11,2.31,3.16.67.92,1.34,1.55,2.41,2.04l-1.11-1.93c-.14,10.97-.01,21.92.03,32.88.01,2.87,4.48,2.88,4.47,0Z"/>
  </g>
  <path class="cls-1" d="M93.41,148.29h-33.74l2.07,1.58c-.03-.17-.07-.56.02.17-.03-.25-.06-.49-.09-.74-.11-.93-.21-1.86-.29-2.79-.27-3.04-.42-6.08-.44-9.13-.03-6.12.42-12.38,2.28-18.25,1.39-4.4,3.87-9,8.34-10.87,1.99-.83,4.2-1.04,6.34-.87.22.02.43.04.65.06-.36-.04,0,0,.06.01.41.07.81.15,1.22.25.32.08.65.17.96.28.2.07,1.09.42.76.27.58.26,1.14.56,1.68.9.29.18.58.38.85.59.29.22-.38-.32.08.07.17.14.34.28.5.43,1.16,1.05,1.72,1.76,2.44,2.85,1.73,2.65,2.56,4.97,3.36,8.08s1.19,5.89,1.44,9.07c.23,3.01.29,6.03.22,9.04-.06,2.64-.22,5.28-.47,7.91-.07.77-.16,1.54-.25,2.3-.05.39-.09.94-.01.12,0,.08-.02.16-.03.24-.17,1.15.28,2.31,1.5,2.64,1.01.28,2.47-.35,2.64-1.5,1.45-9.9,1.6-20.57-.74-30.33-1.47-6.15-4.46-12.74-10.35-15.78-3.57-1.85-7.77-2.26-11.7-1.45-5.24,1.08-9.27,4.92-11.63,9.59-3.37,6.65-4.23,14.41-4.41,21.77-.13,5.4.15,10.86.93,16.21.13.92,1.21,1.58,2.07,1.58h33.74c2.76,0,2.77-4.3,0-4.3Z"/>
  <path class="cls-1" d="M59.67,148.14h-15.59c-1.79,0-3.62.12-5.41,0s-3.5-1.39-4.13-3.15c-.37-1.04-.25-2.13-.23-3.22.02-1.48.04-2.96.05-4.44.03-5.88-.39-11.72-.49-17.59l-1.14,1.98c3.48-1.79,7.01.6,7.54,4.22.18,1.2,1.75,1.94,2.83,1.61,3.14-.99,6.46-.62,9.24,1.19,1.15.75,2.17,1.78,2.92,2.93.38.57.73,1.19.99,1.82.34.81.25,1.51.24,2.38-.07,5.06.22,10.18.95,15.19.18,1.23,1.74,1.91,2.83,1.61,1.32-.36,1.79-1.59,1.61-2.83-.08-.54.05.45.01.09-.04-.41-.1-.82-.15-1.23-.16-1.42-.29-2.84-.39-4.27-.14-2.02-.23-4.04-.26-6.07-.03-1.92.33-4.11-.34-5.92-2.81-7.58-11.1-11.77-18.87-9.33l2.83,1.61c-.42-2.86-2.25-5.5-4.76-6.93-2.97-1.7-6.55-1.57-9.54-.03-.7.36-1.15,1.21-1.14,1.98.09,5.46.5,10.89.49,16.35,0,2.89-.38,5.98.05,8.83.41,2.64,2.01,4.98,4.26,6.42,2.46,1.57,5.21,1.41,7.98,1.41h17.61c2.96,0,2.96-4.6,0-4.6Z"/>
  <path class="cls-1" d="M118.83,55.79c-4.07-5.91-8.12-11.84-12.1-17.81l-2,3.49h11.52l-2.32-2.32c.17,5.19.34,10.38.51,15.57.02.75.05,1.49.07,2.24.04,1.25,1.04,2.32,2.32,2.32s2.36-1.06,2.32-2.32c-.17-5.19-.34-10.38-.51-15.57-.02-.75-.05-1.49-.07-2.24-.04-1.25-1.03-2.32-2.32-2.32h-11.52c-1.68,0-3,2-2,3.49,3.98,5.97,8.03,11.9,12.1,17.81.71,1.03,2.04,1.5,3.17.83,1.02-.6,1.55-2.14.83-3.17Z"/>
  <path class="cls-1" d="M116.83,30.17v5.46c0,.33.09.82,0,1.14-.17.6-1.01.4-1.57.4h-8.48c-.24,0-.54.05-.77,0-.7-.17-1.18-1.41-1.59-2.04-.76-1.16-1.52-2.32-2.29-3.48-.4-.6-.8-1.2-1.2-1.8-.45-.66-.53-.82-.53-1.6,0-.58-.25-1.47.39-1.66.34-.1.94.02,1.3.02.69,0,1.38,0,2.07,0,3,0,6-.11,9-.07,2.04.03,3.62,1.57,3.67,3.61.06,2.54,4.01,2.55,3.95,0-.07-2.97-1.75-5.69-4.5-6.9-1.43-.63-2.87-.67-4.41-.65-1.64.02-3.28.04-4.92.05-1.53.01-3.06.02-4.59.01s-2.98-.07-4.25.93c-1.36,1.07-1.67,2.53-1.67,4.17,0,.8-.05,1.61.17,2.38.24.85.8,1.55,1.29,2.28,1.01,1.5,2,3.02,2.99,4.53.9,1.37,1.71,3.03,3.27,3.74,1.27.58,2.78.42,4.15.42h5.62c1.22,0,2.64.16,3.82-.21,1.83-.57,2.95-2.28,3.03-4.14.02-.58,0-1.16,0-1.74v-4.87c0-2.54-3.95-2.55-3.95,0Z"/>
  <path class="cls-1" d="M61.15,133.97c0-.42-.1-.81-.31-1.17-.1-.17-.23-.33-.37-.47-.21-.22-.45-.38-.74-.48-.27-.14-.57-.21-.89-.2-.32-.01-.61.05-.89.2-.28.09-.53.25-.74.48l-.36.47c-.21.36-.31.75-.31,1.16l.08.61c.11.39.31.73.59,1.01,0,0,0,0,0,0l-.36-.47s0,0,0,0l-.23-.55h0c-.03-.2-.05-.41-.08-.61,0,0,0,0,0,0-.01.32.05.61.2.89.09.28.25.53.48.74.21.22.45.38.74.48.27.14.57.21.89.2l.61-.08c.39-.11.73-.31,1.01-.59l.36-.47c.21-.36.31-.75.31-1.16h0Z"/>
  <path class="cls-1" d="M95.84,136.27c3.9-2.79,9.07-2.99,13.12-.39.92.59,2.01.28,2.79-.36,4.15-3.44,9.55-4.95,14.88-4.67,2.96.16,2.95-4.44,0-4.6-6.6-.35-13.05,1.8-18.13,6.01l2.79-.36c-5.31-3.41-12.61-3.29-17.76.39-1.01.72-1.49,2-.82,3.14.58,1,2.13,1.55,3.14.82h0Z"/>
  <path class="cls-1" d="M88.85,82.44c-.06,4.61-2.91,8.89-7.31,10.45s-9.45.21-12.44-3.43-3.28-8.78-.92-12.74,7.19-6.17,11.75-5.2c5.19,1.1,8.85,5.64,8.92,10.92.03,2.54,3.99,2.55,3.95,0-.08-6.34-3.98-11.92-9.9-14.17s-12.77-.32-16.7,4.46-4.71,11.92-1.43,17.41,9.66,8.23,15.89,7.08c7.04-1.3,12.06-7.73,12.15-14.78.03-2.54-3.92-2.55-3.95,0Z"/>
</svg>